<svg width="220" height="45" viewBox="0 0 220 45" fill="none" xmlns="http://www.w3.org/2000/svg"><g clip-path="url(#clip0_5701_11809)"><path d="M7.22505 44.7225C11.2153 44.7225 14.4501 41.4957 14.4501 37.5153C14.4501 33.5349 11.2153 30.3081 7.22505 30.3081C3.23477 30.3081 0 33.5349 0 37.5153C0 41.4957 3.23477 44.7225 7.22505 44.7225Z" fill="#0040FF"/><path d="M7.47269 44.5526C11.463 44.5526 14.6977 41.3258 14.6977 37.3454C14.6977 33.365 11.463 30.1382 7.47269 30.1382C3.4824 30.1382 0.247635 33.365 0.247635 37.3454C0.247635 41.3258 3.4824 44.5526 7.47269 44.5526Z" fill="#0041FE"/><path d="M7.72517 44.3784C11.7128 44.3784 14.9454 41.1538 14.9454 37.176C14.9454 33.1982 11.7128 29.9736 7.72517 29.9736C3.73757 29.9736 0.504974 33.1982 0.504974 37.176C0.504974 41.1538 3.73757 44.3784 7.72517 44.3784Z" fill="#0141FD"/><path d="M7.97766 44.204C11.9653 44.204 15.1979 40.9794 15.1979 37.0017C15.1979 33.0239 11.9653 29.7993 7.97766 29.7993C3.99005 29.7993 0.757462 33.0239 0.757462 37.0017C0.757462 40.9794 3.99005 44.204 7.97766 44.204Z" fill="#0142FC"/><path d="M8.23015 44.0346C12.2178 44.0346 15.4503 40.81 15.4503 36.8322C15.4503 32.8545 12.2178 29.6299 8.23015 29.6299C4.24254 29.6299 1.00995 32.8545 1.00995 36.8322C1.00995 40.81 4.24254 44.0346 8.23015 44.0346Z" fill="#0243FB"/><path d="M8.47778 43.8603C12.4654 43.8603 15.698 40.6357 15.698 36.6579C15.698 32.6802 12.4654 29.4556 8.47778 29.4556C4.49018 29.4556 1.25758 32.6802 1.25758 36.6579C1.25758 40.6357 4.49018 43.8603 8.47778 43.8603Z" fill="#0244FA"/><path d="M8.73027 43.6909C12.7179 43.6909 15.9505 40.4663 15.9505 36.4885C15.9505 32.5107 12.7179 29.2861 8.73027 29.2861C4.74266 29.2861 1.51007 32.5107 1.51007 36.4885C1.51007 40.4663 4.74266 43.6909 8.73027 43.6909Z" fill="#0344F9"/><path d="M8.98276 43.5214C12.9704 43.5214 16.203 40.2968 16.203 36.3191C16.203 32.3413 12.9704 29.1167 8.98276 29.1167C4.99515 29.1167 1.76256 32.3413 1.76256 36.3191C1.76256 40.2968 4.99515 43.5214 8.98276 43.5214Z" fill="#0345F8"/><path d="M9.23524 43.3466C13.2228 43.3466 16.4554 40.122 16.4554 36.1443C16.4554 32.1665 13.2228 28.9419 9.23524 28.9419C5.24764 28.9419 2.01505 32.1665 2.01505 36.1443C2.01505 40.122 5.24764 43.3466 9.23524 43.3466Z" fill="#0446F7"/><path d="M9.48288 43.1772C13.4705 43.1772 16.7031 39.9526 16.7031 35.9748C16.7031 31.9971 13.4705 28.7725 9.48288 28.7725C5.49527 28.7725 2.26268 31.9971 2.26268 35.9748C2.26268 39.9526 5.49527 43.1772 9.48288 43.1772Z" fill="#0447F6"/><path d="M9.73537 43.0029C13.723 43.0029 16.9556 39.7783 16.9556 35.8005C16.9556 31.8228 13.723 28.5981 9.73537 28.5981C5.74776 28.5981 2.51517 31.8228 2.51517 35.8005C2.51517 39.7783 5.74776 43.0029 9.73537 43.0029Z" fill="#0447F5"/><path d="M9.98787 42.8281C13.9728 42.8281 17.2032 39.6057 17.2032 35.6306C17.2032 31.6555 13.9728 28.4331 9.98787 28.4331C6.00294 28.4331 2.77252 31.6555 2.77252 35.6306C2.77252 39.6057 6.00294 42.8281 9.98787 42.8281Z" fill="#0548F4"/><path d="M10.2355 42.6587C14.2204 42.6587 17.4508 39.4363 17.4508 35.4612C17.4508 31.4861 14.2204 28.2637 10.2355 28.2637C6.25058 28.2637 3.02016 31.4861 3.02016 35.4612C3.02016 39.4363 6.25058 42.6587 10.2355 42.6587Z" fill="#0549F3"/><path d="M10.488 42.4844C14.4729 42.4844 17.7033 39.262 17.7033 35.2869C17.7033 31.3118 14.4729 28.0894 10.488 28.0894C6.50306 28.0894 3.27264 31.3118 3.27264 35.2869C3.27264 39.262 6.50306 42.4844 10.488 42.4844Z" fill="#064AF2"/><path d="M10.7405 42.315C14.7254 42.315 17.9558 39.0925 17.9558 35.1174C17.9558 31.1424 14.7254 27.9199 10.7405 27.9199C6.75555 27.9199 3.52513 31.1424 3.52513 35.1174C3.52513 39.0925 6.75555 42.315 10.7405 42.315Z" fill="#064AF1"/><path d="M10.993 42.1406C14.9779 42.1406 18.2083 38.9182 18.2083 34.9431C18.2083 30.968 14.9779 27.7456 10.993 27.7456C7.00804 27.7456 3.77762 30.968 3.77762 34.9431C3.77762 38.9182 7.00804 42.1406 10.993 42.1406Z" fill="#074BF0"/><path d="M11.2406 41.9712C15.2255 41.9712 18.4559 38.7488 18.4559 34.7737C18.4559 30.7986 15.2255 27.5762 11.2406 27.5762C7.25567 27.5762 4.02525 30.7986 4.02525 34.7737C4.02525 38.7488 7.25567 41.9712 11.2406 41.9712Z" fill="#074CEF"/><path d="M11.4931 41.8018C15.478 41.8018 18.7084 38.5793 18.7084 34.6043C18.7084 30.6292 15.478 27.4067 11.4931 27.4067C7.50816 27.4067 4.27774 30.6292 4.27774 34.6043C4.27774 38.5793 7.50816 41.8018 11.4931 41.8018Z" fill="#074DEE"/><path d="M11.7456 41.627C15.7305 41.627 18.9609 38.4045 18.9609 34.4295C18.9609 30.4544 15.7305 27.2319 11.7456 27.2319C7.76065 27.2319 4.53023 30.4544 4.53023 34.4295C4.53023 38.4045 7.76065 41.627 11.7456 41.627Z" fill="#084DED"/><path d="M11.9932 41.4575C15.9781 41.4575 19.2085 38.2351 19.2085 34.26C19.2085 30.2849 15.9781 27.0625 11.9932 27.0625C8.00828 27.0625 4.77786 30.2849 4.77786 34.26C4.77786 38.2351 8.00828 41.4575 11.9932 41.4575Z" fill="#084EEC"/><path d="M12.2457 41.2784C16.2279 41.2784 19.4562 38.0581 19.4562 34.0857C19.4562 30.1133 16.2279 26.8931 12.2457 26.8931C8.26345 26.8931 5.0352 30.1133 5.0352 34.0857C5.0352 38.0581 8.26345 41.2784 12.2457 41.2784Z" fill="#094FEB"/><path d="M12.4982 41.109C16.4804 41.109 19.7087 37.8887 19.7087 33.9163C19.7087 29.9439 16.4804 26.7236 12.4982 26.7236C8.51593 26.7236 5.28769 29.9439 5.28769 33.9163C5.28769 37.8887 8.51593 41.109 12.4982 41.109Z" fill="#0950EA"/><path d="M12.7507 40.9396C16.7329 40.9396 19.9612 37.7193 19.9612 33.7469C19.9612 29.7745 16.7329 26.5542 12.7507 26.5542C8.76842 26.5542 5.54018 29.7745 5.54018 33.7469C5.54018 37.7193 8.76842 40.9396 12.7507 40.9396Z" fill="#0A50E9"/><path d="M12.9983 40.7652C16.9805 40.7652 20.2088 37.545 20.2088 33.5726C20.2088 29.6002 16.9805 26.3799 12.9983 26.3799C9.01606 26.3799 5.78781 29.6002 5.78781 33.5726C5.78781 37.545 9.01606 40.7652 12.9983 40.7652Z" fill="#0A51E8"/><path d="M13.2508 40.5958C17.233 40.5958 20.4613 37.3755 20.4613 33.4031C20.4613 29.4307 17.233 26.2104 13.2508 26.2104C9.26854 26.2104 6.0403 29.4307 6.0403 33.4031C6.0403 37.3755 9.26854 40.5958 13.2508 40.5958Z" fill="#0B52E7"/><path d="M13.5033 40.4215C17.4855 40.4215 20.7138 37.2012 20.7138 33.2288C20.7138 29.2564 17.4855 26.0361 13.5033 26.0361C9.52103 26.0361 6.29279 29.2564 6.29279 33.2288C6.29279 37.2012 9.52103 40.4215 13.5033 40.4215Z" fill="#0B53E6"/><path d="M13.7558 40.2521C17.738 40.2521 20.9662 37.0318 20.9662 33.0594C20.9662 29.087 17.738 25.8667 13.7558 25.8667C9.77352 25.8667 6.54527 29.087 6.54527 33.0594C6.54527 37.0318 9.77352 40.2521 13.7558 40.2521Z" fill="#0B53E5"/><path d="M14.0034 40.0821C17.9856 40.0821 21.2139 36.8619 21.2139 32.8895C21.2139 28.917 17.9856 25.6968 14.0034 25.6968C10.0212 25.6968 6.79291 28.917 6.79291 32.8895C6.79291 36.8619 10.0212 40.0821 14.0034 40.0821Z" fill="#0C54E4"/><path d="M14.2559 39.903C18.2355 39.903 21.4615 36.6849 21.4615 32.7152C21.4615 28.7454 18.2355 25.5273 14.2559 25.5273C10.2763 25.5273 7.05026 28.7454 7.05026 32.7152C7.05026 36.6849 10.2763 39.903 14.2559 39.903Z" fill="#0C55E3"/><path d="M14.5084 39.7336C18.4879 39.7336 21.714 36.5155 21.714 32.5457C21.714 28.576 18.4879 25.3579 14.5084 25.3579C10.5288 25.3579 7.30273 28.576 7.30273 32.5457C7.30273 36.5155 10.5288 39.7336 14.5084 39.7336Z" fill="#0D56E2"/><path d="M14.756 39.5588C18.7356 39.5588 21.9616 36.3407 21.9616 32.3709C21.9616 28.4012 18.7356 25.1831 14.756 25.1831C10.7765 25.1831 7.55038 28.4012 7.55038 32.3709C7.55038 36.3407 10.7765 39.5588 14.756 39.5588Z" fill="#0D56E1"/><path d="M15.0085 39.3893C18.9881 39.3893 22.2141 36.1712 22.2141 32.2015C22.2141 28.2318 18.9881 25.0137 15.0085 25.0137C11.0289 25.0137 7.80286 28.2318 7.80286 32.2015C7.80286 36.1712 11.0289 39.3893 15.0085 39.3893Z" fill="#0E57E0"/><path d="M15.261 39.2199C19.2406 39.2199 22.4666 36.0018 22.4666 32.0321C22.4666 28.0623 19.2406 24.8442 15.261 24.8442C11.2814 24.8442 8.05536 28.0623 8.05536 32.0321C8.05536 36.0018 11.2814 39.2199 15.261 39.2199Z" fill="#0E58DF"/><path d="M15.5135 39.0456C19.493 39.0456 22.7191 35.8275 22.7191 31.8578C22.7191 27.888 19.493 24.6699 15.5135 24.6699C11.5339 24.6699 8.30785 27.888 8.30785 31.8578C8.30785 35.8275 11.5339 39.0456 15.5135 39.0456Z" fill="#0E59DE"/><path d="M15.7611 38.8762C19.7407 38.8762 22.9667 35.6581 22.9667 31.6883C22.9667 27.7186 19.7407 24.5005 15.7611 24.5005C11.7816 24.5005 8.55548 27.7186 8.55548 31.6883C8.55548 35.6581 11.7816 38.8762 15.7611 38.8762Z" fill="#0F59DD"/><path d="M16.0136 38.7018C19.9932 38.7018 23.2192 35.4837 23.2192 31.514C23.2192 27.5443 19.9932 24.3262 16.0136 24.3262C12.034 24.3262 8.80797 27.5443 8.80797 31.514C8.80797 35.4837 12.034 38.7018 16.0136 38.7018Z" fill="#0F5ADC"/><path d="M16.2661 38.5324C20.2456 38.5324 23.4717 35.3143 23.4717 31.3446C23.4717 27.3748 20.2456 24.1567 16.2661 24.1567C12.2865 24.1567 9.06046 27.3748 9.06046 31.3446C9.06046 35.3143 12.2865 38.5324 16.2661 38.5324Z" fill="#105BDB"/><path d="M16.5186 38.3577C20.4955 38.3577 23.7193 35.1417 23.7193 31.1747C23.7193 27.2076 20.4955 23.9917 16.5186 23.9917C12.5417 23.9917 9.31779 27.2076 9.31779 31.1747C9.31779 35.1417 12.5417 38.3577 16.5186 38.3577Z" fill="#105CDA"/><path d="M16.7662 38.1839C20.7431 38.1839 23.967 34.9679 23.967 31.0009C23.967 27.0338 20.7431 23.8179 16.7662 23.8179C12.7893 23.8179 9.56543 27.0338 9.56543 31.0009C9.56543 34.9679 12.7893 38.1839 16.7662 38.1839Z" fill="#115CD9"/><path d="M17.0187 38.0139C20.9956 38.0139 24.2195 34.798 24.2195 30.8309C24.2195 26.8639 20.9956 23.6479 17.0187 23.6479C13.0418 23.6479 9.81792 26.8639 9.81792 30.8309C9.81792 34.798 13.0418 38.0139 17.0187 38.0139Z" fill="#115DD8"/><path d="M17.2712 37.8396C21.2481 37.8396 24.472 34.6237 24.472 30.6566C24.472 26.6896 21.2481 23.4736 17.2712 23.4736C13.2943 23.4736 10.0704 26.6896 10.0704 30.6566C10.0704 34.6237 13.2943 37.8396 17.2712 37.8396Z" fill="#125ED7"/><path d="M17.5188 37.6702C21.4957 37.6702 24.7196 34.4542 24.7196 30.4872C24.7196 26.5201 21.4957 23.3042 17.5188 23.3042C13.5419 23.3042 10.318 26.5201 10.318 30.4872C10.318 34.4542 13.5419 37.6702 17.5188 37.6702Z" fill="#125FD6"/><path d="M17.7713 37.5003C21.7482 37.5003 24.9721 34.2843 24.9721 30.3173C24.9721 26.3502 21.7482 23.1343 17.7713 23.1343C13.7944 23.1343 10.5705 26.3502 10.5705 30.3173C10.5705 34.2843 13.7944 37.5003 17.7713 37.5003Z" fill="#125FD5"/><path d="M18.0238 37.3264C22.0007 37.3264 25.2246 34.1105 25.2246 30.1434C25.2246 26.1764 22.0007 22.9604 18.0238 22.9604C14.0469 22.9604 10.823 26.1764 10.823 30.1434C10.823 34.1105 14.0469 37.3264 18.0238 37.3264Z" fill="#1360D4"/><path d="M18.2763 37.1565C22.2532 37.1565 25.4771 33.9406 25.4771 29.9735C25.4771 26.0065 22.2532 22.7905 18.2763 22.7905C14.2994 22.7905 11.0755 26.0065 11.0755 29.9735C11.0755 33.9406 14.2994 37.1565 18.2763 37.1565Z" fill="#1361D3"/><path d="M18.5239 36.9822C22.5008 36.9822 25.7247 33.7663 25.7247 29.7992C25.7247 25.8321 22.5008 22.6162 18.5239 22.6162C14.547 22.6162 11.3231 25.8321 11.3231 29.7992C11.3231 33.7663 14.547 36.9822 18.5239 36.9822Z" fill="#1462D2"/><path d="M18.7764 36.808C22.7506 36.808 25.9723 33.5942 25.9723 29.6298C25.9723 25.6654 22.7506 22.4517 18.7764 22.4517C14.8022 22.4517 11.5805 25.6654 11.5805 29.6298C11.5805 33.5942 14.8022 36.808 18.7764 36.808Z" fill="#1462D1"/><path d="M19.0289 36.6385C23.0031 36.6385 26.2248 33.4248 26.2248 29.4604C26.2248 25.496 23.0031 22.2822 19.0289 22.2822C15.0547 22.2822 11.833 25.496 11.833 29.4604C11.833 33.4248 15.0547 36.6385 19.0289 36.6385Z" fill="#1563D0"/><path d="M19.2765 36.4642C23.2507 36.4642 26.4724 33.2504 26.4724 29.2861C26.4724 25.3217 23.2507 22.1079 19.2765 22.1079C15.3023 22.1079 12.0806 25.3217 12.0806 29.2861C12.0806 33.2504 15.3023 36.4642 19.2765 36.4642Z" fill="#1564CF"/><path d="M19.529 36.2948C23.5032 36.2948 26.7249 33.081 26.7249 29.1166C26.7249 25.1522 23.5032 21.9385 19.529 21.9385C15.5548 21.9385 12.3331 25.1522 12.3331 29.1166C12.3331 33.081 15.5548 36.2948 19.529 36.2948Z" fill="#1665CE"/><path d="M19.7815 36.12C23.7557 36.12 26.9774 32.9062 26.9774 28.9418C26.9774 24.9774 23.7557 21.7637 19.7815 21.7637C15.8073 21.7637 12.5856 24.9774 12.5856 28.9418C12.5856 32.9062 15.8073 36.12 19.7815 36.12Z" fill="#1665CD"/><path d="M20.034 35.9505C24.0082 35.9505 27.2299 32.7368 27.2299 28.7724C27.2299 24.808 24.0082 21.5942 20.034 21.5942C16.0598 21.5942 12.8381 24.808 12.8381 28.7724C12.8381 32.7368 16.0598 35.9505 20.034 35.9505Z" fill="#1666CC"/><path d="M20.2816 35.7811C24.2558 35.7811 27.4775 32.5673 27.4775 28.6029C27.4775 24.6386 24.2558 21.4248 20.2816 21.4248C16.3074 21.4248 13.0857 24.6386 13.0857 28.6029C13.0857 32.5673 16.3074 35.7811 20.2816 35.7811Z" fill="#1767CB"/><path d="M20.5341 35.6068C24.5083 35.6068 27.73 32.393 27.73 28.4286C27.73 24.4643 24.5083 21.2505 20.5341 21.2505C16.5599 21.2505 13.3382 24.4643 13.3382 28.4286C13.3382 32.393 16.5599 35.6068 20.5341 35.6068Z" fill="#1768CA"/><path d="M20.7866 35.4373C24.7608 35.4373 27.9825 32.2236 27.9825 28.2592C27.9825 24.2948 24.7608 21.0811 20.7866 21.0811C16.8124 21.0811 13.5907 24.2948 13.5907 28.2592C13.5907 32.2236 16.8124 35.4373 20.7866 35.4373Z" fill="#1868C9"/><path d="M21.0391 35.2582C25.0106 35.2582 28.2302 32.0466 28.2302 28.0849C28.2302 24.1232 25.0106 20.9116 21.0391 20.9116C17.0676 20.9116 13.848 24.1232 13.848 28.0849C13.848 32.0466 17.0676 35.2582 21.0391 35.2582Z" fill="#1869C8"/><path d="M21.2867 35.0883C25.2582 35.0883 28.4778 31.8767 28.4778 27.915C28.4778 23.9533 25.2582 20.7417 21.2867 20.7417C17.3152 20.7417 14.0957 23.9533 14.0957 27.915C14.0957 31.8767 17.3152 35.0883 21.2867 35.0883Z" fill="#196AC7"/><path d="M21.5392 34.9189C25.5107 34.9189 28.7303 31.7073 28.7303 27.7456C28.7303 23.7839 25.5107 20.5723 21.5392 20.5723C17.5677 20.5723 14.3481 23.7839 14.3481 27.7456C14.3481 31.7073 17.5677 34.9189 21.5392 34.9189Z" fill="#196BC6"/><path d="M21.7917 34.7446C25.7632 34.7446 28.9828 31.533 28.9828 27.5713C28.9828 23.6095 25.7632 20.3979 21.7917 20.3979C17.8202 20.3979 14.6006 23.6095 14.6006 27.5713C14.6006 31.533 17.8202 34.7446 21.7917 34.7446Z" fill="#196BC5"/><path d="M22.0393 34.5751C26.0108 34.5751 29.2304 31.3635 29.2304 27.4018C29.2304 23.4401 26.0108 20.2285 22.0393 20.2285C18.0678 20.2285 14.8483 23.4401 14.8483 27.4018C14.8483 31.3635 18.0678 34.5751 22.0393 34.5751Z" fill="#1A6CC4"/><path d="M22.2918 34.4008C26.2633 34.4008 29.4829 31.1892 29.4829 27.2275C29.4829 23.2658 26.2633 20.0542 22.2918 20.0542C18.3203 20.0542 15.1008 23.2658 15.1008 27.2275C15.1008 31.1892 18.3203 34.4008 22.2918 34.4008Z" fill="#1A6DC3"/><path d="M22.5443 34.2309C26.5158 34.2309 29.7354 31.0193 29.7354 27.0576C29.7354 23.0959 26.5158 19.8843 22.5443 19.8843C18.5728 19.8843 15.3532 23.0959 15.3532 27.0576C15.3532 31.0193 18.5728 34.2309 22.5443 34.2309Z" fill="#1B6EC2"/><path d="M22.7968 34.0615C26.7683 34.0615 29.9879 30.8499 29.9879 26.8881C29.9879 22.9264 26.7683 19.7148 22.7968 19.7148C18.8253 19.7148 15.6057 22.9264 15.6057 26.8881C15.6057 30.8499 18.8253 34.0615 22.7968 34.0615Z" fill="#1B6EC1"/><path d="M23.0444 33.8823C27.0133 33.8823 30.2306 30.6729 30.2306 26.7139C30.2306 22.7548 27.0133 19.5454 23.0444 19.5454C19.0756 19.5454 15.8582 22.7548 15.8582 26.7139C15.8582 30.6729 19.0756 33.8823 23.0444 33.8823Z" fill="#1C6FC0"/><path d="M23.2969 33.7129C27.2657 33.7129 30.4831 30.5035 30.4831 26.5444C30.4831 22.5854 27.2657 19.376 23.2969 19.376C19.3281 19.376 16.1107 22.5854 16.1107 26.5444C16.1107 30.5035 19.3281 33.7129 23.2969 33.7129Z" fill="#1C70BF"/><path d="M23.5494 33.5386C27.5182 33.5386 30.7356 30.3291 30.7356 26.3701C30.7356 22.4111 27.5182 19.2017 23.5494 19.2017C19.5806 19.2017 16.3632 22.4111 16.3632 26.3701C16.3632 30.3291 19.5806 33.5386 23.5494 33.5386Z" fill="#1D71BE"/><path d="M23.8019 33.3691C27.7707 33.3691 30.9881 30.1597 30.9881 26.2007C30.9881 22.2417 27.7707 19.0322 23.8019 19.0322C19.8331 19.0322 16.6157 22.2417 16.6157 26.2007C16.6157 30.1597 19.8331 33.3691 23.8019 33.3691Z" fill="#1D71BD"/><path d="M24.0495 33.1997C28.0184 33.1997 31.2357 29.9903 31.2357 26.0313C31.2357 22.0722 28.0184 18.8628 24.0495 18.8628C20.0807 18.8628 16.8633 22.0722 16.8633 26.0313C16.8633 29.9903 20.0807 33.1997 24.0495 33.1997Z" fill="#1D72BC"/><path d="M24.302 33.0249C28.2709 33.0249 31.4882 29.8155 31.4882 25.8564C31.4882 21.8974 28.2709 18.688 24.302 18.688C20.3332 18.688 17.1158 21.8974 17.1158 25.8564C17.1158 29.8155 20.3332 33.0249 24.302 33.0249Z" fill="#1E73BB"/><path d="M24.5545 32.856C28.5233 32.856 31.7407 29.6465 31.7407 25.6875C31.7407 21.7285 28.5233 18.519 24.5545 18.519C20.5857 18.519 17.3683 21.7285 17.3683 25.6875C17.3683 29.6465 20.5857 32.856 24.5545 32.856Z" fill="#1E74BA"/><path d="M24.8021 32.6812C28.771 32.6812 31.9884 29.4717 31.9884 25.5127C31.9884 21.5537 28.771 18.3442 24.8021 18.3442C20.8333 18.3442 17.6159 21.5537 17.6159 25.5127C17.6159 29.4717 20.8333 32.6812 24.8021 32.6812Z" fill="#1F74B9"/><path d="M25.0546 32.5117C29.0235 32.5117 32.2408 29.3023 32.2408 25.3433C32.2408 21.3842 29.0235 18.1748 25.0546 18.1748C21.0858 18.1748 17.8684 21.3842 17.8684 25.3433C17.8684 29.3023 21.0858 32.5117 25.0546 32.5117Z" fill="#1F75B8"/><path d="M25.3071 32.3375C29.2733 32.3375 32.4885 29.1302 32.4885 25.1739C32.4885 21.2175 29.2733 18.0103 25.3071 18.0103C21.341 18.0103 18.1258 21.2175 18.1258 25.1739C18.1258 29.1302 21.341 32.3375 25.3071 32.3375Z" fill="#2076B7"/><path d="M25.5596 32.1627C29.5258 32.1627 32.741 28.9554 32.741 24.9991C32.741 21.0427 29.5258 17.8354 25.5596 17.8354C21.5935 17.8354 18.3783 21.0427 18.3783 24.9991C18.3783 28.9554 21.5935 32.1627 25.5596 32.1627Z" fill="#2077B6"/><path d="M25.8072 31.9932C29.7734 31.9932 32.9886 28.786 32.9886 24.8296C32.9886 20.8733 29.7734 17.666 25.8072 17.666C21.8411 17.666 18.6259 20.8733 18.6259 24.8296C18.6259 28.786 21.8411 31.9932 25.8072 31.9932Z" fill="#2177B5"/><path d="M26.0597 31.8189C30.0259 31.8189 33.2411 28.6117 33.2411 24.6553C33.2411 20.699 30.0259 17.4917 26.0597 17.4917C22.0936 17.4917 18.8784 20.699 18.8784 24.6553C18.8784 28.6117 22.0936 31.8189 26.0597 31.8189Z" fill="#2178B4"/><path d="M26.3122 31.6495C30.2784 31.6495 33.4936 28.4422 33.4936 24.4859C33.4936 20.5295 30.2784 17.3223 26.3122 17.3223C22.3461 17.3223 19.1309 20.5295 19.1309 24.4859C19.1309 28.4422 22.3461 31.6495 26.3122 31.6495Z" fill="#2179B3"/><path d="M26.5647 31.4801C30.5309 31.4801 33.7461 28.2728 33.7461 24.3164C33.7461 20.3601 30.5309 17.1528 26.5647 17.1528C22.5985 17.1528 19.3833 20.3601 19.3833 24.3164C19.3833 28.2728 22.5985 31.4801 26.5647 31.4801Z" fill="#227AB2"/><path d="M26.8123 31.3053C30.7785 31.3053 33.9937 28.098 33.9937 24.1416C33.9937 20.1853 30.7785 16.978 26.8123 16.978C22.8462 16.978 19.631 20.1853 19.631 24.1416C19.631 28.098 22.8462 31.3053 26.8123 31.3053Z" fill="#227AB1"/><path d="M27.0648 31.1358C31.031 31.1358 34.2462 27.9286 34.2462 23.9722C34.2462 20.0159 31.031 16.8086 27.0648 16.8086C23.0987 16.8086 19.8835 20.0159 19.8835 23.9722C19.8835 27.9286 23.0987 31.1358 27.0648 31.1358Z" fill="#237BB0"/><path d="M27.3173 30.9615C31.2835 30.9615 34.4987 27.7542 34.4987 23.7979C34.4987 19.8415 31.2835 16.6343 27.3173 16.6343C23.3512 16.6343 20.136 19.8415 20.136 23.7979C20.136 27.7542 23.3512 30.9615 27.3173 30.9615Z" fill="#237CAF"/><path d="M27.5649 30.7878C31.5284 30.7878 34.7414 27.5827 34.7414 23.629C34.7414 19.6753 31.5284 16.4702 27.5649 16.4702C23.6015 16.4702 20.3884 19.6753 20.3884 23.629C20.3884 27.5827 23.6015 30.7878 27.5649 30.7878Z" fill="#247DAE"/><path d="M27.8174 30.6178C31.7809 30.6178 34.9939 27.4127 34.9939 23.4591C34.9939 19.5054 31.7809 16.3003 27.8174 16.3003C23.854 16.3003 20.6409 19.5054 20.6409 23.4591C20.6409 27.4127 23.854 30.6178 27.8174 30.6178Z" fill="#247DAD"/><path d="M28.0699 30.4435C32.0334 30.4435 35.2464 27.2384 35.2464 23.2847C35.2464 19.3311 32.0334 16.126 28.0699 16.126C24.1064 16.126 20.8934 19.3311 20.8934 23.2847C20.8934 27.2384 24.1064 30.4435 28.0699 30.4435Z" fill="#247EAC"/><path d="M28.3224 30.2741C32.2859 30.2741 35.4989 27.069 35.4989 23.1153C35.4989 19.1616 32.2859 15.9565 28.3224 15.9565C24.3589 15.9565 21.1459 19.1616 21.1459 23.1153C21.1459 27.069 24.3589 30.2741 28.3224 30.2741Z" fill="#257FAB"/><path d="M28.57 30.1042C32.5335 30.1042 35.7465 26.8991 35.7465 22.9454C35.7465 18.9917 32.5335 15.7866 28.57 15.7866C24.6066 15.7866 21.3935 18.9917 21.3935 22.9454C21.3935 26.8991 24.6066 30.1042 28.57 30.1042Z" fill="#2580AA"/><path d="M28.8225 29.9303C32.786 29.9303 35.999 26.7252 35.999 22.7716C35.999 18.8179 32.786 15.6128 28.8225 15.6128C24.8591 15.6128 21.646 18.8179 21.646 22.7716C21.646 26.7252 24.8591 29.9303 28.8225 29.9303Z" fill="#2680A9"/><path d="M29.075 29.7604C33.0385 29.7604 36.2515 26.5553 36.2515 22.6016C36.2515 18.648 33.0385 15.4429 29.075 15.4429C25.1116 15.4429 21.8985 18.648 21.8985 22.6016C21.8985 26.5553 25.1116 29.7604 29.075 29.7604Z" fill="#2681A8"/><path d="M29.3226 29.5861C33.2861 29.5861 36.4991 26.381 36.4991 22.4273C36.4991 18.4736 33.2861 15.2686 29.3226 15.2686C25.3592 15.2686 22.1461 18.4736 22.1461 22.4273C22.1461 26.381 25.3592 29.5861 29.3226 29.5861Z" fill="#2782A7"/><path d="M29.5751 29.4167C33.5386 29.4167 36.7517 26.2116 36.7517 22.2579C36.7517 18.3042 33.5386 15.0991 29.5751 15.0991C25.6117 15.0991 22.3987 18.3042 22.3987 22.2579C22.3987 26.2116 25.6117 29.4167 29.5751 29.4167Z" fill="#2783A6"/><path d="M29.8276 29.2424C33.7884 29.2424 36.9993 26.0395 36.9993 22.0885C36.9993 18.1375 33.7884 14.9346 29.8276 14.9346C25.8668 14.9346 22.656 18.1375 22.656 22.0885C22.656 26.0395 25.8668 29.2424 29.8276 29.2424Z" fill="#2883A5"/><path d="M30.0801 29.0676C34.0409 29.0676 37.2518 25.8647 37.2518 21.9137C37.2518 17.9627 34.0409 14.7598 30.0801 14.7598C26.1193 14.7598 22.9085 17.9627 22.9085 21.9137C22.9085 25.8647 26.1193 29.0676 30.0801 29.0676Z" fill="#2884A4"/><path d="M30.3277 28.8987C34.2885 28.8987 37.4994 25.6958 37.4994 21.7447C37.4994 17.7937 34.2885 14.5908 30.3277 14.5908C26.367 14.5908 23.1561 17.7937 23.1561 21.7447C23.1561 25.6958 26.367 28.8987 30.3277 28.8987Z" fill="#2885A3"/><path d="M30.5802 28.7239C34.541 28.7239 37.7519 25.521 37.7519 21.5699C37.7519 17.6189 34.541 14.416 30.5802 14.416C26.6195 14.416 23.4086 17.6189 23.4086 21.5699C23.4086 25.521 26.6195 28.7239 30.5802 28.7239Z" fill="#2986A2"/><path d="M30.8327 28.5544C34.7935 28.5544 38.0044 25.3515 38.0044 21.4005C38.0044 17.4495 34.7935 14.2466 30.8327 14.2466C26.8719 14.2466 23.6611 17.4495 23.6611 21.4005C23.6611 25.3515 26.8719 28.5544 30.8327 28.5544Z" fill="#2986A1"/><path d="M31.0852 28.385C35.046 28.385 38.2569 25.1821 38.2569 21.2311C38.2569 17.2801 35.046 14.0771 31.0852 14.0771C27.1244 14.0771 23.9136 17.2801 23.9136 21.2311C23.9136 25.1821 27.1244 28.385 31.0852 28.385Z" fill="#2A87A0"/><path d="M31.3329 28.2107C35.2936 28.2107 38.5045 25.0078 38.5045 21.0568C38.5045 17.1058 35.2936 13.9028 31.3329 13.9028C27.3721 13.9028 24.1612 17.1058 24.1612 21.0568C24.1612 25.0078 27.3721 28.2107 31.3329 28.2107Z" fill="#2A889F"/><path d="M31.5853 28.0413C35.5461 28.0413 38.757 24.8383 38.757 20.8873C38.757 16.9363 35.5461 13.7334 31.5853 13.7334C27.6246 13.7334 24.4137 16.9363 24.4137 20.8873C24.4137 24.8383 27.6246 28.0413 31.5853 28.0413Z" fill="#2B899E"/><path d="M31.8378 27.8621C35.7959 27.8621 39.0046 24.6614 39.0046 20.7131C39.0046 16.7647 35.7959 13.564 31.8378 13.564C27.8797 13.564 24.671 16.7647 24.671 20.7131C24.671 24.6614 27.8797 27.8621 31.8378 27.8621Z" fill="#2B899D"/><path d="M32.0855 27.6922C36.0436 27.6922 39.2522 24.4915 39.2522 20.5431C39.2522 16.5948 36.0436 13.394 32.0855 13.394C28.1273 13.394 24.9187 16.5948 24.9187 20.5431C24.9187 24.4915 28.1273 27.6922 32.0855 27.6922Z" fill="#2B8A9C"/><path d="M32.3379 27.5228C36.2961 27.5228 39.5047 24.322 39.5047 20.3737C39.5047 16.4254 36.2961 13.2246 32.3379 13.2246C28.3798 13.2246 25.1712 16.4254 25.1712 20.3737C25.1712 24.322 28.3798 27.5228 32.3379 27.5228Z" fill="#2C8B9B"/><path d="M32.5904 27.3485C36.5485 27.3485 39.7572 24.1477 39.7572 20.1994C39.7572 16.251 36.5485 13.0503 32.5904 13.0503C28.6323 13.0503 25.4236 16.251 25.4236 20.1994C25.4236 24.1477 28.6323 27.3485 32.5904 27.3485Z" fill="#2C8C9A"/><path d="M32.8332 27.1785C36.7913 27.1785 40 23.9778 40 20.0295C40 16.0811 36.7913 12.8804 32.8332 12.8804C28.8751 12.8804 25.6664 16.0811 25.6664 20.0295C25.6664 23.9778 28.8751 27.1785 32.8332 27.1785Z" fill="#2D8C99"/><path d="M32.5273 27.1981C36.4854 27.1981 39.6941 23.9973 39.6941 20.049C39.6941 16.1007 36.4854 12.8999 32.5273 12.8999C28.5692 12.8999 25.3605 16.1007 25.3605 20.049C25.3605 23.9973 28.5692 27.1981 32.5273 27.1981Z" fill="#2D8D98"/><path d="M32.2214 27.2127C36.1795 27.2127 39.3882 24.012 39.3882 20.0636C39.3882 16.1153 36.1795 12.9146 32.2214 12.9146C28.2633 12.9146 25.0546 16.1153 25.0546 20.0636C25.0546 24.012 28.2633 27.2127 32.2214 27.2127Z" fill="#2E8E97"/><path d="M31.9204 27.2274C35.8785 27.2274 39.0871 24.0266 39.0871 20.0783C39.0871 16.13 35.8785 12.9292 31.9204 12.9292C27.9623 12.9292 24.7536 16.13 24.7536 20.0783C24.7536 24.0266 27.9623 27.2274 31.9204 27.2274Z" fill="#2E8F96"/><path d="M31.6145 27.242C35.5726 27.242 38.7813 24.0413 38.7813 20.0929C38.7813 16.1446 35.5726 12.9438 31.6145 12.9438C27.6564 12.9438 24.4477 16.1446 24.4477 20.0929C24.4477 24.0413 27.6564 27.242 31.6145 27.242Z" fill="#2F8F95"/><path d="M31.3134 27.2514C35.2689 27.2514 38.4754 24.0528 38.4754 20.1071C38.4754 16.1615 35.2689 12.9629 31.3134 12.9629C27.358 12.9629 24.1515 16.1615 24.1515 20.1071C24.1515 24.0528 27.358 27.2514 31.3134 27.2514Z" fill="#2F9094"/><path d="M31.0075 27.266C34.963 27.266 38.1695 24.0674 38.1695 20.1218C38.1695 16.1761 34.963 12.9775 31.0075 12.9775C27.0521 12.9775 23.8456 16.1761 23.8456 20.1218C23.8456 24.0674 27.0521 27.266 31.0075 27.266Z" fill="#2F9193"/><path d="M30.7016 27.2856C34.6571 27.2856 37.8636 24.087 37.8636 20.1413C37.8636 16.1957 34.6571 12.9971 30.7016 12.9971C26.7462 12.9971 23.5397 16.1957 23.5397 20.1413C23.5397 24.087 26.7462 27.2856 30.7016 27.2856Z" fill="#309292"/><path d="M30.4006 27.2997C34.356 27.2997 37.5625 24.1011 37.5625 20.1555C37.5625 16.2098 34.356 13.0112 30.4006 13.0112C26.4452 13.0112 23.2386 16.2098 23.2386 20.1555C23.2386 24.1011 26.4452 27.2997 30.4006 27.2997Z" fill="#309291"/><path d="M30.0947 27.3144C34.0501 27.3144 37.2566 24.1158 37.2566 20.1701C37.2566 16.2245 34.0501 13.0259 30.0947 13.0259C26.1393 13.0259 22.9328 16.2245 22.9328 20.1701C22.9328 24.1158 26.1393 27.3144 30.0947 27.3144Z" fill="#319390"/><path d="M29.7936 27.329C33.7491 27.329 36.9556 24.1304 36.9556 20.1848C36.9556 16.2391 33.7491 13.0405 29.7936 13.0405C25.8382 13.0405 22.6317 16.2391 22.6317 20.1848C22.6317 24.1304 25.8382 27.329 29.7936 27.329Z" fill="#31948F"/><path d="M29.4877 27.3437C33.4432 27.3437 36.6497 24.1451 36.6497 20.1994C36.6497 16.2538 33.4432 13.0552 29.4877 13.0552C25.5323 13.0552 22.3258 16.2538 22.3258 20.1994C22.3258 24.1451 25.5323 27.3437 29.4877 27.3437Z" fill="#32958E"/><path d="M29.1818 27.3583C33.1373 27.3583 36.3438 24.1597 36.3438 20.2141C36.3438 16.2684 33.1373 13.0698 29.1818 13.0698C25.2264 13.0698 22.0199 16.2684 22.0199 20.2141C22.0199 24.1597 25.2264 27.3583 29.1818 27.3583Z" fill="#32958D"/><path d="M28.8808 27.3778C32.8362 27.3778 36.0427 24.1793 36.0427 20.2336C36.0427 16.2879 32.8362 13.0894 28.8808 13.0894C24.9254 13.0894 21.7189 16.2879 21.7189 20.2336C21.7189 24.1793 24.9254 27.3778 28.8808 27.3778Z" fill="#33968C"/><path d="M28.5749 27.3872C32.5276 27.3872 35.732 24.1908 35.732 20.2478C35.732 16.3048 32.5276 13.1084 28.5749 13.1084C24.6221 13.1084 21.4178 16.3048 21.4178 20.2478C21.4178 24.1908 24.6221 27.3872 28.5749 27.3872Z" fill="#33978B"/><path d="M28.2739 27.4014C32.2266 27.4014 35.4309 24.2049 35.4309 20.262C35.4309 16.319 32.2266 13.1226 28.2739 13.1226C24.3211 13.1226 21.1168 16.319 21.1168 20.262C21.1168 24.2049 24.3211 27.4014 28.2739 27.4014Z" fill="#33988A"/><path d="M27.968 27.4165C31.9207 27.4165 35.125 24.2201 35.125 20.2771C35.125 16.3341 31.9207 13.1377 27.968 13.1377C24.0152 13.1377 20.8109 16.3341 20.8109 20.2771C20.8109 24.2201 24.0152 27.4165 27.968 27.4165Z" fill="#349889"/><path d="M27.6621 27.4307C31.6148 27.4307 34.8191 24.2342 34.8191 20.2913C34.8191 16.3483 31.6148 13.1519 27.6621 13.1519C23.7093 13.1519 20.505 16.3483 20.505 20.2913C20.505 24.2342 23.7093 27.4307 27.6621 27.4307Z" fill="#349988"/><path d="M27.361 27.4453C31.3138 27.4453 34.5181 24.2489 34.5181 20.3059C34.5181 16.3629 31.3138 13.1665 27.361 13.1665C23.4083 13.1665 20.2039 16.3629 20.2039 20.3059C20.2039 24.2489 23.4083 27.4453 27.361 27.4453Z" fill="#359A87"/><path d="M27.0551 27.4599C31.0079 27.4599 34.2122 24.2635 34.2122 20.3205C34.2122 16.3776 31.0079 13.1812 27.0551 13.1812C23.1024 13.1812 19.898 16.3776 19.898 20.3205C19.898 24.2635 23.1024 27.4599 27.0551 27.4599Z" fill="#359B86"/><path d="M26.7541 27.4795C30.7068 27.4795 33.9112 24.2831 33.9112 20.3401C33.9112 16.3971 30.7068 13.2007 26.7541 13.2007C22.8013 13.2007 19.597 16.3971 19.597 20.3401C19.597 24.2831 22.8013 27.4795 26.7541 27.4795Z" fill="#369B85"/><path d="M26.4482 27.4936C30.4009 27.4936 33.6052 24.2972 33.6052 20.3542C33.6052 16.4113 30.4009 13.2148 26.4482 13.2148C22.4954 13.2148 19.2911 16.4113 19.2911 20.3542C19.2911 24.2972 22.4954 27.4936 26.4482 27.4936Z" fill="#369C84"/><path d="M26.1423 27.5035C30.0923 27.5035 33.2945 24.3092 33.2945 20.3689C33.2945 16.4286 30.0923 13.2344 26.1423 13.2344C22.1922 13.2344 18.9901 16.4286 18.9901 20.3689C18.9901 24.3092 22.1922 27.5035 26.1423 27.5035Z" fill="#369D83"/><path d="M25.8412 27.5181C29.7913 27.5181 32.9934 24.3239 32.9934 20.3836C32.9934 16.4433 29.7913 13.249 25.8412 13.249C21.8912 13.249 18.689 16.4433 18.689 20.3836C18.689 24.3239 21.8912 27.5181 25.8412 27.5181Z" fill="#379E82"/><path d="M25.5353 27.5323C29.4854 27.5323 32.6875 24.338 32.6875 20.3977C32.6875 16.4574 29.4854 13.2632 25.5353 13.2632C21.5853 13.2632 18.3831 16.4574 18.3831 20.3977C18.3831 24.338 21.5853 27.5323 25.5353 27.5323Z" fill="#379E81"/><path d="M25.2343 27.5469C29.1843 27.5469 32.3865 24.3527 32.3865 20.4124C32.3865 16.4721 29.1843 13.2778 25.2343 13.2778C21.2842 13.2778 18.0821 16.4721 18.0821 20.4124C18.0821 24.3527 21.2842 27.5469 25.2343 27.5469Z" fill="#389F80"/><path d="M24.9284 27.5665C28.8784 27.5665 32.0806 24.3722 32.0806 20.4319C32.0806 16.4916 28.8784 13.2974 24.9284 13.2974C20.9783 13.2974 17.7762 16.4916 17.7762 20.4319C17.7762 24.3722 20.9783 27.5665 24.9284 27.5665Z" fill="#38A07F"/><path d="M24.6225 27.5811C28.5725 27.5811 31.7747 24.3869 31.7747 20.4466C31.7747 16.5063 28.5725 13.312 24.6225 13.312C20.6724 13.312 17.4703 16.5063 17.4703 20.4466C17.4703 24.3869 20.6724 27.5811 24.6225 27.5811Z" fill="#39A17E"/><path d="M24.3214 27.5953C28.2715 27.5953 31.4737 24.401 31.4737 20.4607C31.4737 16.5204 28.2715 13.3262 24.3214 13.3262C20.3714 13.3262 17.1692 16.5204 17.1692 20.4607C17.1692 24.401 20.3714 27.5953 24.3214 27.5953Z" fill="#39A17D"/><path d="M24.0155 27.6099C27.9656 27.6099 31.1678 24.4157 31.1678 20.4754C31.1678 16.5351 27.9656 13.3408 24.0155 13.3408C20.0655 13.3408 16.8633 16.5351 16.8633 20.4754C16.8633 24.4157 20.0655 27.6099 24.0155 27.6099Z" fill="#3AA27C"/><path d="M23.7145 27.6246C27.6646 27.6246 30.8667 24.4303 30.8667 20.49C30.8667 16.5497 27.6646 13.3555 23.7145 13.3555C19.7644 13.3555 16.5623 16.5497 16.5623 20.49C16.5623 24.4303 19.7644 27.6246 23.7145 27.6246Z" fill="#3AA37B"/><path d="M23.4086 27.6339C27.356 27.6339 30.556 24.4419 30.556 20.5042C30.556 16.5666 27.356 13.3745 23.4086 13.3745C19.4612 13.3745 16.2612 16.5666 16.2612 20.5042C16.2612 24.4419 19.4612 27.6339 23.4086 27.6339Z" fill="#3AA47A"/><path d="M23.1027 27.6535C27.0501 27.6535 30.2501 24.4614 30.2501 20.5238C30.2501 16.5861 27.0501 13.394 23.1027 13.394C19.1553 13.394 15.9553 16.5861 15.9553 20.5238C15.9553 24.4614 19.1553 27.6535 23.1027 27.6535Z" fill="#3BA479"/><path d="M22.8016 27.6681C26.749 27.6681 29.949 24.476 29.949 20.5384C29.949 16.6008 26.749 13.4087 22.8016 13.4087C18.8543 13.4087 15.6543 16.6008 15.6543 20.5384C15.6543 24.476 18.8543 27.6681 22.8016 27.6681Z" fill="#3BA578"/><path d="M22.4958 27.6828C26.4431 27.6828 29.6431 24.4907 29.6431 20.5531C29.6431 16.6154 26.4431 13.4233 22.4958 13.4233C18.5484 13.4233 15.3484 16.6154 15.3484 20.5531C15.3484 24.4907 18.5484 27.6828 22.4958 27.6828Z" fill="#3CA677"/><path d="M22.1947 27.6969C26.1421 27.6969 29.3421 24.5048 29.3421 20.5672C29.3421 16.6296 26.1421 13.4375 22.1947 13.4375C18.2473 13.4375 15.0473 16.6296 15.0473 20.5672C15.0473 24.5048 18.2473 27.6969 22.1947 27.6969Z" fill="#3CA776"/><path d="M21.8888 27.7121C25.8362 27.7121 29.0362 24.52 29.0362 20.5823C29.0362 16.6447 25.8362 13.4526 21.8888 13.4526C17.9414 13.4526 14.7414 16.6447 14.7414 20.5823C14.7414 24.52 17.9414 27.7121 21.8888 27.7121Z" fill="#3DA775"/><path d="M21.5829 27.7262C25.5303 27.7262 28.7303 24.5341 28.7303 20.5965C28.7303 16.6589 25.5303 13.4668 21.5829 13.4668C17.6355 13.4668 14.4355 16.6589 14.4355 20.5965C14.4355 24.5341 17.6355 27.7262 21.5829 27.7262Z" fill="#3DA874"/><path d="M21.2819 27.7453C25.2292 27.7453 28.4292 24.5532 28.4292 20.6155C28.4292 16.6779 25.2292 13.4858 21.2819 13.4858C17.3345 13.4858 14.1345 16.6779 14.1345 20.6155C14.1345 24.5532 17.3345 27.7453 21.2819 27.7453Z" fill="#3DA973"/><path d="M20.976 27.7604C24.9233 27.7604 28.1233 24.5683 28.1233 20.6307C28.1233 16.6931 24.9233 13.501 20.976 13.501C17.0286 13.501 13.8286 16.6931 13.8286 20.6307C13.8286 24.5683 17.0286 27.7604 20.976 27.7604Z" fill="#3EAA72"/><path d="M20.6749 27.7698C24.6196 27.7698 27.8174 24.5798 27.8174 20.6449C27.8174 16.7099 24.6196 13.52 20.6749 13.52C16.7302 13.52 13.5324 16.7099 13.5324 20.6449C13.5324 24.5798 16.7302 27.7698 20.6749 27.7698Z" fill="#3EAA71"/><path d="M20.369 27.7844C24.3137 27.7844 27.5115 24.5945 27.5115 20.6595C27.5115 16.7246 24.3137 13.5347 20.369 13.5347C16.4243 13.5347 13.2265 16.7246 13.2265 20.6595C13.2265 24.5945 16.4243 27.7844 20.369 27.7844Z" fill="#3FAB70"/><path d="M20.0631 27.7991C24.0078 27.7991 27.2056 24.6091 27.2056 20.6742C27.2056 16.7392 24.0078 13.5493 20.0631 13.5493C16.1184 13.5493 12.9206 16.7392 12.9206 20.6742C12.9206 24.6091 16.1184 27.7991 20.0631 27.7991Z" fill="#3FAC6F"/><path d="M19.7621 27.8137C23.7068 27.8137 26.9046 24.6238 26.9046 20.6888C26.9046 16.7539 23.7068 13.564 19.7621 13.564C15.8174 13.564 12.6196 16.7539 12.6196 20.6888C12.6196 24.6238 15.8174 27.8137 19.7621 27.8137Z" fill="#40AD6E"/><path d="M19.4562 27.8279C23.4009 27.8279 26.5987 24.6379 26.5987 20.703C26.5987 16.768 23.4009 13.5781 19.4562 13.5781C15.5115 13.5781 12.3137 16.768 12.3137 20.703C12.3137 24.6379 15.5115 27.8279 19.4562 27.8279Z" fill="#40AD6D"/><path d="M19.1551 27.8474C23.0998 27.8474 26.2976 24.6575 26.2976 20.7225C26.2976 16.7876 23.0998 13.5977 19.1551 13.5977C15.2104 13.5977 12.0126 16.7876 12.0126 20.7225C12.0126 24.6575 15.2104 27.8474 19.1551 27.8474Z" fill="#41AE6C"/><path d="M18.8492 27.862C22.7939 27.862 25.9917 24.6721 25.9917 20.7372C25.9917 16.8022 22.7939 13.6123 18.8492 13.6123C14.9045 13.6123 11.7067 16.8022 11.7067 20.7372C11.7067 24.6721 14.9045 27.862 18.8492 27.862Z" fill="#41AF6B"/><path d="M18.5433 27.8762C22.488 27.8762 25.6858 24.6863 25.6858 20.7513C25.6858 16.8164 22.488 13.6265 18.5433 13.6265C14.5986 13.6265 11.4008 16.8164 11.4008 20.7513C11.4008 24.6863 14.5986 27.8762 18.5433 27.8762Z" fill="#41B06A"/><path d="M18.2423 27.8908C22.187 27.8908 25.3848 24.7009 25.3848 20.766C25.3848 16.831 22.187 13.6411 18.2423 13.6411C14.2976 13.6411 11.0998 16.831 11.0998 20.766C11.0998 24.7009 14.2976 27.8908 18.2423 27.8908Z" fill="#42B069"/><path d="M17.9364 27.9007C21.8784 27.9007 25.074 24.7129 25.074 20.7807C25.074 16.8484 21.8784 13.6606 17.9364 13.6606C13.9944 13.6606 10.7987 16.8484 10.7987 20.7807C10.7987 24.7129 13.9944 27.9007 17.9364 27.9007Z" fill="#42B168"/><path d="M17.6354 27.9153C21.5774 27.9153 24.773 24.7276 24.773 20.7953C24.773 16.863 21.5774 13.6753 17.6354 13.6753C13.6933 13.6753 10.4977 16.863 10.4977 20.7953C10.4977 24.7276 13.6933 27.9153 17.6354 27.9153Z" fill="#43B267"/><path d="M17.3295 27.9349C21.2715 27.9349 24.4671 24.7471 24.4671 20.8148C24.4671 16.8826 21.2715 13.6948 17.3295 13.6948C13.3874 13.6948 10.1918 16.8826 10.1918 20.8148C10.1918 24.7471 13.3874 27.9349 17.3295 27.9349Z" fill="#43B366"/><path d="M17.0235 27.949C20.9656 27.949 24.1612 24.7613 24.1612 20.829C24.1612 16.8967 20.9656 13.709 17.0235 13.709C13.0815 13.709 9.88589 16.8967 9.88589 20.829C9.88589 24.7613 13.0815 27.949 17.0235 27.949Z" fill="#44B365"/><path d="M16.7225 27.9637C20.6645 27.9637 23.8602 24.7759 23.8602 20.8437C23.8602 16.9114 20.6645 13.7236 16.7225 13.7236C12.7805 13.7236 9.58485 16.9114 9.58485 20.8437C9.58485 24.7759 12.7805 27.9637 16.7225 27.9637Z" fill="#44B464"/><path d="M16.4166 27.9778C20.3586 27.9778 23.5543 24.7901 23.5543 20.8578C23.5543 16.9255 20.3586 13.7378 16.4166 13.7378C12.4746 13.7378 9.27895 16.9255 9.27895 20.8578C9.27895 24.7901 12.4746 27.9778 16.4166 27.9778Z" fill="#45B563"/><path d="M16.1156 27.9925C20.0576 27.9925 23.2532 24.8047 23.2532 20.8725C23.2532 16.9402 20.0576 13.7524 16.1156 13.7524C12.1735 13.7524 8.97791 16.9402 8.97791 20.8725C8.97791 24.8047 12.1735 27.9925 16.1156 27.9925Z" fill="#45B662"/><path d="M15.8097 28.0071C19.7517 28.0071 22.9473 24.8194 22.9473 20.8871C22.9473 16.9548 19.7517 13.7671 15.8097 13.7671C11.8676 13.7671 8.67201 16.9548 8.67201 20.8871C8.67201 24.8194 11.8676 28.0071 15.8097 28.0071Z" fill="#45B661"/><path d="M15.5038 28.0219C19.4431 28.0219 22.6366 24.8363 22.6366 20.9067C22.6366 16.9771 19.4431 13.7915 15.5038 13.7915C11.5644 13.7915 8.37097 16.9771 8.37097 20.9067C8.37097 24.8363 11.5644 28.0219 15.5038 28.0219Z" fill="#46B760"/><path d="M15.2027 28.0365C19.1421 28.0365 22.3355 24.8509 22.3355 20.9213C22.3355 16.9917 19.1421 13.8062 15.2027 13.8062C11.2634 13.8062 8.06992 16.9917 8.06992 20.9213C8.06992 24.8509 11.2634 28.0365 15.2027 28.0365Z" fill="#46B85F"/><path d="M14.8968 28.0507C18.8362 28.0507 22.0296 24.8651 22.0296 20.9355C22.0296 17.0059 18.8362 13.8203 14.8968 13.8203C10.9575 13.8203 7.76402 17.0059 7.76402 20.9355C7.76402 24.8651 10.9575 28.0507 14.8968 28.0507Z" fill="#47B95E"/><path d="M14.5958 28.0653C18.5351 28.0653 21.7286 24.8797 21.7286 20.9501C21.7286 17.0205 18.5351 13.835 14.5958 13.835C10.6564 13.835 7.46298 17.0205 7.46298 20.9501C7.46298 24.8797 10.6564 28.0653 14.5958 28.0653Z" fill="#47B95D"/><path d="M14.2899 28.0795C18.2292 28.0795 21.4227 24.8939 21.4227 20.9643C21.4227 17.0347 18.2292 13.8491 14.2899 13.8491C10.3505 13.8491 7.15707 17.0347 7.15707 20.9643C7.15707 24.8939 10.3505 28.0795 14.2899 28.0795Z" fill="#48BA5C"/><path d="M13.984 28.0946C17.9233 28.0946 21.1168 24.909 21.1168 20.9794C21.1168 17.0498 17.9233 13.8643 13.984 13.8643C10.0446 13.8643 6.85118 17.0498 6.85118 20.9794C6.85118 24.909 10.0446 28.0946 13.984 28.0946Z" fill="#48BB5B"/><path d="M13.6829 28.1137C17.6223 28.1137 20.8157 24.9281 20.8157 20.9985C20.8157 17.0689 17.6223 13.8833 13.6829 13.8833C9.7436 13.8833 6.55014 17.0689 6.55014 20.9985C6.55014 24.9281 9.7436 28.1137 13.6829 28.1137Z" fill="#48BC5A"/><path d="M13.377 28.1283C17.3164 28.1283 20.5098 24.9427 20.5098 21.0131C20.5098 17.0835 17.3164 13.8979 13.377 13.8979C9.4377 13.8979 6.24423 17.0835 6.24423 21.0131C6.24423 24.9427 9.4377 28.1283 13.377 28.1283Z" fill="#49BC59"/><path d="M13.076 28.143C17.0153 28.143 20.2088 24.9574 20.2088 21.0278C20.2088 17.0982 17.0153 13.9126 13.076 13.9126C9.13665 13.9126 5.94319 17.0982 5.94319 21.0278C5.94319 24.9574 9.13665 28.143 13.076 28.143Z" fill="#49BD58"/><path d="M12.7701 28.1523C16.7067 28.1523 19.898 24.9689 19.898 21.042C19.898 17.115 16.7067 13.9316 12.7701 13.9316C8.83344 13.9316 5.64215 17.115 5.64215 21.042C5.64215 24.9689 8.83344 28.1523 12.7701 28.1523Z" fill="#4ABE57"/><path d="M12.4642 28.167C16.4008 28.167 19.5921 24.9836 19.5921 21.0566C19.5921 17.1297 16.4008 13.9463 12.4642 13.9463C8.52753 13.9463 5.33624 17.1297 5.33624 21.0566C5.33624 24.9836 8.52753 28.167 12.4642 28.167Z" fill="#4ABF56"/><path d="M12.1631 28.1816C16.0998 28.1816 19.2911 24.9982 19.2911 21.0713C19.2911 17.1443 16.0998 13.9609 12.1631 13.9609C8.22649 13.9609 5.0352 17.1443 5.0352 21.0713C5.0352 24.9982 8.22649 28.1816 12.1631 28.1816Z" fill="#4BBF55"/><path d="M11.8573 28.1963C15.7939 28.1963 18.9852 25.0129 18.9852 21.0859C18.9852 17.159 15.7939 13.9756 11.8573 13.9756C7.9206 13.9756 4.72931 17.159 4.72931 21.0859C4.72931 25.0129 7.9206 28.1963 11.8573 28.1963Z" fill="#4BC054"/><path d="M11.5562 28.2153C15.4929 28.2153 18.6841 25.0319 18.6841 21.105C18.6841 17.178 15.4929 13.9946 11.5562 13.9946C7.61954 13.9946 4.42825 17.178 4.42825 21.105C4.42825 25.0319 7.61954 28.2153 11.5562 28.2153Z" fill="#4CC153"/><path d="M11.2503 28.2299C15.187 28.2299 18.3782 25.0465 18.3782 21.1196C18.3782 17.1927 15.187 14.0093 11.2503 14.0093C7.31365 14.0093 4.12236 17.1927 4.12236 21.1196C4.12236 25.0465 7.31365 28.2299 11.2503 28.2299Z" fill="#4CC252"/><path d="M10.9444 28.2446C14.8811 28.2446 18.0724 25.0612 18.0724 21.1343C18.0724 17.2073 14.8811 14.0239 10.9444 14.0239C7.00776 14.0239 3.81647 17.2073 3.81647 21.1343C3.81647 25.0612 7.00776 28.2446 10.9444 28.2446Z" fill="#4CC251"/><path d="M10.6434 28.2592C14.58 28.2592 17.7713 25.0758 17.7713 21.1489C17.7713 17.222 14.58 14.0386 10.6434 14.0386C6.7067 14.0386 3.51541 17.222 3.51541 21.1489C3.51541 25.0758 6.7067 28.2592 10.6434 28.2592Z" fill="#4DC350"/><path d="M10.3375 28.2734C14.2741 28.2734 17.4654 25.09 17.4654 21.1631C17.4654 17.2361 14.2741 14.0527 10.3375 14.0527C6.40081 14.0527 3.20952 17.2361 3.20952 21.1631C3.20952 25.09 6.40081 28.2734 10.3375 28.2734Z" fill="#4DC44F"/><path d="M10.0364 28.2833C13.9704 28.2833 17.1595 25.102 17.1595 21.1778C17.1595 17.2535 13.9704 14.0723 10.0364 14.0723C6.10245 14.0723 2.91333 17.2535 2.91333 21.1778C2.91333 25.102 6.10245 28.2833 10.0364 28.2833Z" fill="#4EC54E"/><path d="M9.86161 28.254C13.7956 28.254 16.9847 25.0727 16.9847 21.1485C16.9847 17.2242 13.7956 14.043 9.86161 14.043C5.92764 14.043 2.73853 17.2242 2.73853 21.1485C2.73853 25.0727 5.92764 28.254 9.86161 28.254Z" fill="#4EC54D"/><path d="M10.1044 28.0752C14.0384 28.0752 17.2275 24.894 17.2275 20.9698C17.2275 17.0455 14.0384 13.8643 10.1044 13.8643C6.17042 13.8643 2.98131 17.0455 2.98131 20.9698C2.98131 24.894 6.17042 28.0752 10.1044 28.0752Z" fill="#4FC64C"/><path d="M10.352 27.896C14.286 27.896 17.4751 24.7148 17.4751 20.7906C17.4751 16.8663 14.286 13.6851 10.352 13.6851C6.41806 13.6851 3.22894 16.8663 3.22894 20.7906C3.22894 24.7148 6.41806 27.896 10.352 27.896Z" fill="#4FC74B"/><path d="M10.5948 27.7164C14.5288 27.7164 17.7179 24.5351 17.7179 20.6109C17.7179 16.6866 14.5288 13.5054 10.5948 13.5054C6.66083 13.5054 3.47171 16.6866 3.47171 20.6109C3.47171 24.5351 6.66083 27.7164 10.5948 27.7164Z" fill="#4FC84A"/><path d="M10.8424 27.5372C14.7764 27.5372 17.9655 24.3559 17.9655 20.4317C17.9655 16.5074 14.7764 13.3262 10.8424 13.3262C6.90846 13.3262 3.71935 16.5074 3.71935 20.4317C3.71935 24.3559 6.90846 27.5372 10.8424 27.5372Z" fill="#50C849"/><path d="M11.0852 27.358C15.0192 27.358 18.2083 24.1767 18.2083 20.2525C18.2083 16.3282 15.0192 13.147 11.0852 13.147C7.15124 13.147 3.96213 16.3282 3.96213 20.2525C3.96213 24.1767 7.15124 27.358 11.0852 27.358Z" fill="#50C948"/><path d="M11.3329 27.1792C15.2668 27.1792 18.4559 23.998 18.4559 20.0738C18.4559 16.1495 15.2668 12.9683 11.3329 12.9683C7.39888 12.9683 4.20976 16.1495 4.20976 20.0738C4.20976 23.998 7.39888 27.1792 11.3329 27.1792Z" fill="#51CA47"/><path d="M11.5805 26.9948C15.5118 26.9948 18.6987 23.8157 18.6987 19.8941C18.6987 15.9725 15.5118 12.7935 11.5805 12.7935C7.64919 12.7935 4.46225 15.9725 4.46225 19.8941C4.46225 23.8157 7.64919 26.9948 11.5805 26.9948Z" fill="#51CB46"/><path d="M11.8232 26.816C15.7545 26.816 18.9415 23.637 18.9415 19.7154C18.9415 15.7938 15.7545 12.6147 11.8232 12.6147C7.89196 12.6147 4.70502 15.7938 4.70502 19.7154C4.70502 23.637 7.89196 26.816 11.8232 26.816Z" fill="#52CB45"/><path d="M12.0709 26.6364C16.0022 26.6364 19.1891 23.4573 19.1891 19.5357C19.1891 15.6141 16.0022 12.4351 12.0709 12.4351C8.13959 12.4351 4.95265 15.6141 4.95265 19.5357C4.95265 23.4573 8.13959 26.6364 12.0709 26.6364Z" fill="#52CC44"/><path d="M12.3137 26.4572C16.245 26.4572 19.4319 23.2781 19.4319 19.3565C19.4319 15.4349 16.245 12.2559 12.3137 12.2559C8.38238 12.2559 5.19543 15.4349 5.19543 19.3565C5.19543 23.2781 8.38238 26.4572 12.3137 26.4572Z" fill="#53CD43"/><path d="M12.5613 26.278C16.4926 26.278 19.6795 23.0989 19.6795 19.1773C19.6795 15.2557 16.4926 12.0767 12.5613 12.0767C8.63001 12.0767 5.44307 15.2557 5.44307 19.1773C5.44307 23.0989 8.63001 26.278 12.5613 26.278Z" fill="#53CE42"/><path d="M12.8041 26.0988C16.7354 26.0988 19.9223 22.9197 19.9223 18.9981C19.9223 15.0765 16.7354 11.8975 12.8041 11.8975C8.87279 11.8975 5.68585 15.0765 5.68585 18.9981C5.68585 22.9197 8.87279 26.0988 12.8041 26.0988Z" fill="#53CE41"/><path d="M13.0517 25.9196C16.983 25.9196 20.1699 22.7405 20.1699 18.8189C20.1699 14.8973 16.983 11.7183 13.0517 11.7183C9.12041 11.7183 5.93347 14.8973 5.93347 18.8189C5.93347 22.7405 9.12041 25.9196 13.0517 25.9196Z" fill="#54CF40"/><path d="M13.2993 25.7404C17.2306 25.7404 20.4176 22.5613 20.4176 18.6397C20.4176 14.7181 17.2306 11.5391 13.2993 11.5391C9.36805 11.5391 6.18111 14.7181 6.18111 18.6397C6.18111 22.5613 9.36805 25.7404 13.2993 25.7404Z" fill="#54D03F"/><path d="M13.5421 25.5612C17.4734 25.5612 20.6604 22.3821 20.6604 18.4605C20.6604 14.5389 17.4734 11.3599 13.5421 11.3599C9.61083 11.3599 6.42389 14.5389 6.42389 18.4605C6.42389 22.3821 9.61083 25.5612 13.5421 25.5612Z" fill="#55D13E"/><path d="M13.7898 25.3772C17.7184 25.3772 20.9031 22.2003 20.9031 18.2814C20.9031 14.3624 17.7184 11.1855 13.7898 11.1855C9.86114 11.1855 6.67638 14.3624 6.67638 18.2814C6.67638 22.2003 9.86114 25.3772 13.7898 25.3772Z" fill="#55D13D"/><path d="M14.0325 25.198C17.9611 25.198 21.1459 22.0211 21.1459 18.1022C21.1459 14.1832 17.9611 11.0063 14.0325 11.0063C10.1039 11.0063 6.91916 14.1832 6.91916 18.1022C6.91916 22.0211 10.1039 25.198 14.0325 25.198Z" fill="#56D23C"/><path d="M14.2802 25.0188C18.2088 25.0188 21.3935 21.8419 21.3935 17.923C21.3935 14.004 18.2088 10.8271 14.2802 10.8271C10.3515 10.8271 7.16678 14.004 7.16678 17.923C7.16678 21.8419 10.3515 25.0188 14.2802 25.0188Z" fill="#56D33B"/><path d="M14.5229 24.8396C18.4515 24.8396 21.6363 21.6627 21.6363 17.7438C21.6363 13.8248 18.4515 10.6479 14.5229 10.6479C10.5943 10.6479 7.40956 13.8248 7.40956 17.7438C7.40956 21.6627 10.5943 24.8396 14.5229 24.8396Z" fill="#57D43A"/><path d="M14.7706 24.6604C18.6992 24.6604 21.884 21.4835 21.884 17.5646C21.884 13.6457 18.6992 10.4688 14.7706 10.4688C10.842 10.4688 7.6572 13.6457 7.6572 17.5646C7.6572 21.4835 10.842 24.6604 14.7706 24.6604Z" fill="#57D439"/><path d="M15.0182 24.4812C18.9468 24.4812 22.1316 21.3043 22.1316 17.3854C22.1316 13.4665 18.9468 10.2896 15.0182 10.2896C11.0896 10.2896 7.90483 13.4665 7.90483 17.3854C7.90483 21.3043 11.0896 24.4812 15.0182 24.4812Z" fill="#57D538"/><path d="M15.261 24.302C19.1896 24.302 22.3744 21.1251 22.3744 17.2062C22.3744 13.2873 19.1896 10.1104 15.261 10.1104C11.3324 10.1104 8.14761 13.2873 8.14761 17.2062C8.14761 21.1251 11.3324 24.302 15.261 24.302Z" fill="#58D637"/><path d="M15.5086 24.1228C19.4372 24.1228 22.622 20.9459 22.622 17.027C22.622 13.1081 19.4372 9.93115 15.5086 9.93115C11.58 9.93115 8.39523 13.1081 8.39523 17.027C8.39523 20.9459 11.58 24.1228 15.5086 24.1228Z" fill="#58D736"/><path d="M15.7514 23.9431C19.68 23.9431 22.8648 20.7662 22.8648 16.8473C22.8648 12.9284 19.68 9.75146 15.7514 9.75146C11.8228 9.75146 8.63802 12.9284 8.63802 16.8473C8.63802 20.7662 11.8228 23.9431 15.7514 23.9431Z" fill="#59D735"/><path d="M15.999 23.7596C19.925 23.7596 23.1075 20.5848 23.1075 16.6686C23.1075 12.7524 19.925 9.57764 15.999 9.57764C12.0731 9.57764 8.8905 12.7524 8.8905 16.6686C8.8905 20.5848 12.0731 23.7596 15.999 23.7596Z" fill="#59D834"/><path d="M16.2418 23.5799C20.1677 23.5799 23.3503 20.4051 23.3503 16.4889C23.3503 12.5727 20.1677 9.39795 16.2418 9.39795C12.3159 9.39795 9.13329 12.5727 9.13329 16.4889C9.13329 20.4051 12.3159 23.5799 16.2418 23.5799Z" fill="#5AD933"/><path d="M16.4894 23.4007C20.4154 23.4007 23.598 20.2259 23.598 16.3097C23.598 12.3935 20.4154 9.21875 16.4894 9.21875C12.5635 9.21875 9.38092 12.3935 9.38092 16.3097C9.38092 20.2259 12.5635 23.4007 16.4894 23.4007Z" fill="#5ADA32"/><path d="M16.7371 23.222C20.663 23.222 23.8456 20.0472 23.8456 16.131C23.8456 12.2148 20.663 9.04004 16.7371 9.04004C12.8111 9.04004 9.62856 12.2148 9.62856 16.131C9.62856 20.0472 12.8111 23.222 16.7371 23.222Z" fill="#5ADA31"/><path d="M16.9798 23.0428C20.9058 23.0428 24.0884 19.868 24.0884 15.9518C24.0884 12.0356 20.9058 8.86084 16.9798 8.86084C13.0539 8.86084 9.87132 12.0356 9.87132 15.9518C9.87132 19.868 13.0539 23.0428 16.9798 23.0428Z" fill="#5BDB30"/><path d="M17.2275 22.8631C21.1534 22.8631 24.336 19.6883 24.336 15.7721C24.336 11.8559 21.1534 8.68115 17.2275 8.68115C13.3016 8.68115 10.119 11.8559 10.119 15.7721C10.119 19.6883 13.3016 22.8631 17.2275 22.8631Z" fill="#5BDC2F"/><path d="M17.4703 22.6839C21.3962 22.6839 24.5788 19.5091 24.5788 15.5929C24.5788 11.6767 21.3962 8.50195 17.4703 8.50195C13.5443 8.50195 10.3617 11.6767 10.3617 15.5929C10.3617 19.5091 13.5443 22.6839 17.4703 22.6839Z" fill="#5CDD2E"/><path d="M17.7179 22.4998C21.6438 22.4998 24.8264 19.3251 24.8264 15.4088C24.8264 11.4926 21.6438 8.31787 17.7179 8.31787C13.792 8.31787 10.6094 11.4926 10.6094 15.4088C10.6094 19.3251 13.792 22.4998 17.7179 22.4998Z" fill="#5CDD2D"/><path d="M17.9655 22.3206C21.8915 22.3206 25.0741 19.1459 25.0741 15.2296C25.0741 11.3134 21.8915 8.13867 17.9655 8.13867C14.0396 8.13867 10.857 11.3134 10.857 15.2296C10.857 19.1459 14.0396 22.3206 17.9655 22.3206Z" fill="#5DDE2C"/><path d="M18.2083 22.1366C22.1316 22.1366 25.312 18.964 25.312 15.0505C25.312 11.1369 22.1316 7.96436 18.2083 7.96436C14.2851 7.96436 11.1046 11.1369 11.1046 15.0505C11.1046 18.964 14.2851 22.1366 18.2083 22.1366Z" fill="#5DDF2B"/><path d="M18.4559 21.9574C22.3792 21.9574 25.5596 18.7848 25.5596 14.8713C25.5596 10.9577 22.3792 7.78516 18.4559 7.78516C14.5327 7.78516 11.3523 10.9577 11.3523 14.8713C11.3523 18.7848 14.5327 21.9574 18.4559 21.9574Z" fill="#5EE02A"/><path d="M18.6987 21.7782C22.622 21.7782 25.8024 18.6056 25.8024 14.6921C25.8024 10.7785 22.622 7.60596 18.6987 7.60596C14.7755 7.60596 11.595 10.7785 11.595 14.6921C11.595 18.6056 14.7755 21.7782 18.6987 21.7782Z" fill="#5EE029"/><path d="M18.9463 21.5995C22.8696 21.5995 26.05 18.4269 26.05 14.5134C26.05 10.5998 22.8696 7.42725 18.9463 7.42725C15.0231 7.42725 11.8427 10.5998 11.8427 14.5134C11.8427 18.4269 15.0231 21.5995 18.9463 21.5995Z" fill="#5EE128"/><path d="M19.1891 21.4198C23.1124 21.4198 26.2928 18.2472 26.2928 14.3337C26.2928 10.4201 23.1124 7.24756 19.1891 7.24756C15.2659 7.24756 12.0854 10.4201 12.0854 14.3337C12.0854 18.2472 15.2659 21.4198 19.1891 21.4198Z" fill="#5FE227"/><path d="M19.4368 21.2406C23.36 21.2406 26.5404 18.068 26.5404 14.1545C26.5404 10.2409 23.36 7.06836 19.4368 7.06836C15.5135 7.06836 12.3331 10.2409 12.3331 14.1545C12.3331 18.068 15.5135 21.2406 19.4368 21.2406Z" fill="#5FE326"/><path d="M19.6844 21.0614C23.6076 21.0614 26.7881 17.8888 26.7881 13.9753C26.7881 10.0617 23.6076 6.88916 19.6844 6.88916C15.7611 6.88916 12.5807 10.0617 12.5807 13.9753C12.5807 17.8888 15.7611 21.0614 19.6844 21.0614Z" fill="#60E325"/><path d="M19.9272 20.8827C23.8504 20.8827 27.0308 17.7101 27.0308 13.7966C27.0308 9.88301 23.8504 6.71045 19.9272 6.71045C16.0039 6.71045 12.8235 9.88301 12.8235 13.7966C12.8235 17.7101 16.0039 20.8827 19.9272 20.8827Z" fill="#60E424"/><path d="M20.1748 20.6982C24.0954 20.6982 27.2736 17.5278 27.2736 13.6169C27.2736 9.70604 24.0954 6.53564 20.1748 6.53564C16.2542 6.53564 13.076 9.70604 13.076 13.6169C13.076 17.5278 16.2542 20.6982 20.1748 20.6982Z" fill="#61E523"/><path d="M20.4176 20.519C24.3381 20.519 27.5164 17.3486 27.5164 13.4377C27.5164 9.52684 24.3381 6.35645 20.4176 6.35645C16.497 6.35645 13.3188 9.52684 13.3188 13.4377C13.3188 17.3486 16.497 20.519 20.4176 20.519Z" fill="#61E622"/><path d="M20.6652 20.3398C24.5858 20.3398 27.764 17.1694 27.764 13.2585C27.764 9.34764 24.5858 6.17725 20.6652 6.17725C16.7447 6.17725 13.5664 9.34764 13.5664 13.2585C13.5664 17.1694 16.7447 20.3398 20.6652 20.3398Z" fill="#62E621"/><path d="M20.908 20.1606C24.8286 20.1606 28.0068 16.9902 28.0068 13.0793C28.0068 9.16844 24.8286 5.99805 20.908 5.99805C16.9874 5.99805 13.8092 9.16844 13.8092 13.0793C13.8092 16.9902 16.9874 20.1606 20.908 20.1606Z" fill="#62E720"/><path d="M21.1556 19.9814C25.0762 19.9814 28.2544 16.811 28.2544 12.9001C28.2544 8.98924 25.0762 5.81885 21.1556 5.81885C17.2351 5.81885 14.0568 8.98924 14.0568 12.9001C14.0568 16.811 17.2351 19.9814 21.1556 19.9814Z" fill="#62E81F"/><path d="M21.4033 19.8022C25.3238 19.8022 28.5021 16.6318 28.5021 12.7209C28.5021 8.81004 25.3238 5.63965 21.4033 5.63965C17.4827 5.63965 14.3044 8.81004 14.3044 12.7209C14.3044 16.6318 17.4827 19.8022 21.4033 19.8022Z" fill="#63E91E"/><path d="M21.646 19.623C25.5666 19.623 28.7448 16.4526 28.7448 12.5417C28.7448 8.63084 25.5666 5.46045 21.646 5.46045C17.7255 5.46045 14.5472 8.63084 14.5472 12.5417C14.5472 16.4526 17.7255 19.623 21.646 19.623Z" fill="#63E91D"/><path d="M21.8937 19.4438C25.8142 19.4438 28.9925 16.2734 28.9925 12.3625C28.9925 8.45164 25.8142 5.28125 21.8937 5.28125C17.9731 5.28125 14.7948 8.45164 14.7948 12.3625C14.7948 16.2734 17.9731 19.4438 21.8937 19.4438Z" fill="#64EA1C"/><path d="M22.1364 19.2646C26.057 19.2646 29.2352 16.0942 29.2352 12.1833C29.2352 8.27245 26.057 5.10205 22.1364 5.10205C18.2159 5.10205 15.0376 8.27245 15.0376 12.1833C15.0376 16.0942 18.2159 19.2646 22.1364 19.2646Z" fill="#64EB1B"/><path d="M22.3841 19.0806C26.302 19.0806 29.478 15.9124 29.478 12.0042C29.478 8.09596 26.302 4.92773 22.3841 4.92773C18.4662 4.92773 15.2901 8.09596 15.2901 12.0042C15.2901 15.9124 18.4662 19.0806 22.3841 19.0806Z" fill="#65EC1A"/><path d="M22.6269 18.9014C26.5447 18.9014 29.7208 15.7332 29.7208 11.825C29.7208 7.91676 26.5447 4.74854 22.6269 4.74854C18.709 4.74854 15.5329 7.91676 15.5329 11.825C15.5329 15.7332 18.709 18.9014 22.6269 18.9014Z" fill="#65EC19"/><path d="M22.8745 18.7222C26.7924 18.7222 29.9684 15.554 29.9684 11.6458C29.9684 7.73756 26.7924 4.56934 22.8745 4.56934C18.9566 4.56934 15.7805 7.73756 15.7805 11.6458C15.7805 15.554 18.9566 18.7222 22.8745 18.7222Z" fill="#65ED18"/><path d="M23.1221 18.543C27.04 18.543 30.2161 15.3748 30.2161 11.4666C30.2161 7.55836 27.04 4.39014 23.1221 4.39014C19.2042 4.39014 16.0282 7.55836 16.0282 11.4666C16.0282 15.3748 19.2042 18.543 23.1221 18.543Z" fill="#66EE17"/><path d="M23.3649 18.3633C27.2828 18.3633 30.4589 15.1951 30.4589 11.2869C30.4589 7.37868 27.2828 4.21045 23.3649 4.21045C19.447 4.21045 16.271 7.37868 16.271 11.2869C16.271 15.1951 19.447 18.3633 23.3649 18.3633Z" fill="#66EF16"/><path d="M23.6125 18.1846C27.5304 18.1846 30.7065 15.0164 30.7065 11.1082C30.7065 7.19996 27.5304 4.03174 23.6125 4.03174C19.6947 4.03174 16.5186 7.19996 16.5186 11.1082C16.5186 15.0164 19.6947 18.1846 23.6125 18.1846Z" fill="#67EF15"/><path d="M23.8553 18.0054C27.7732 18.0054 30.9493 14.8372 30.9493 10.929C30.9493 7.02076 27.7732 3.85254 23.8553 3.85254C19.9374 3.85254 16.7614 7.02076 16.7614 10.929C16.7614 14.8372 19.9374 18.0054 23.8553 18.0054Z" fill="#67F014"/><path d="M24.1029 17.8262C28.0208 17.8262 31.1969 14.658 31.1969 10.7498C31.1969 6.84157 28.0208 3.67334 24.1029 3.67334C20.1851 3.67334 17.009 6.84157 17.009 10.7498C17.009 14.658 20.1851 17.8262 24.1029 17.8262Z" fill="#68F113"/><path d="M24.3457 17.6465C28.2636 17.6465 31.4397 14.4783 31.4397 10.5701C31.4397 6.66188 28.2636 3.49365 24.3457 3.49365C20.4278 3.49365 17.2518 6.66188 17.2518 10.5701C17.2518 14.4783 20.4278 17.6465 24.3457 17.6465Z" fill="#68F212"/><path d="M24.5933 17.463C28.5085 17.463 31.6824 14.2969 31.6824 10.3914C31.6824 6.48588 28.5085 3.31982 24.5933 3.31982C20.6781 3.31982 17.5042 6.48588 17.5042 10.3914C17.5042 14.2969 20.6781 17.463 24.5933 17.463Z" fill="#69F211"/><path d="M24.841 17.2833C28.7562 17.2833 31.9301 14.1173 31.9301 10.2117C31.9301 6.30619 28.7562 3.14014 24.841 3.14014C20.9258 3.14014 17.7519 6.30619 17.7519 10.2117C17.7519 14.1173 20.9258 17.2833 24.841 17.2833Z" fill="#69F310"/><path d="M25.0838 17.1041C28.999 17.1041 32.1729 13.9381 32.1729 10.0325C32.1729 6.127 28.999 2.96094 25.0838 2.96094C21.1686 2.96094 17.9947 6.127 17.9947 10.0325C17.9947 13.9381 21.1686 17.1041 25.0838 17.1041Z" fill="#69F40F"/><path d="M25.3314 16.9254C29.2466 16.9254 32.4205 13.7593 32.4205 9.85381C32.4205 5.94828 29.2466 2.78223 25.3314 2.78223C21.4162 2.78223 18.2423 5.94828 18.2423 9.85381C18.2423 13.7593 21.4162 16.9254 25.3314 16.9254Z" fill="#6AF50E"/><path d="M25.5742 16.7462C29.4894 16.7462 32.6633 13.5801 32.6633 9.67462C32.6633 5.76909 29.4894 2.60303 25.5742 2.60303C21.659 2.60303 18.4851 5.76909 18.4851 9.67462C18.4851 13.5801 21.659 16.7462 25.5742 16.7462Z" fill="#6AF50D"/><path d="M25.8218 16.5665C29.737 16.5665 32.9109 13.4005 32.9109 9.49493C32.9109 5.5894 29.737 2.42334 25.8218 2.42334C21.9066 2.42334 18.7327 5.5894 18.7327 9.49493C18.7327 13.4005 21.9066 16.5665 25.8218 16.5665Z" fill="#6BF60C"/><path d="M26.0646 16.3873C29.9798 16.3873 33.1537 13.2213 33.1537 9.31573C33.1537 5.4102 29.9798 2.24414 26.0646 2.24414C22.1494 2.24414 18.9755 5.4102 18.9755 9.31573C18.9755 13.2213 22.1494 16.3873 26.0646 16.3873Z" fill="#6BF70B"/><path d="M26.3122 16.2081C30.2274 16.2081 33.4013 13.0421 33.4013 9.13653C33.4013 5.231 30.2274 2.06494 26.3122 2.06494C22.397 2.06494 19.2231 5.231 19.2231 9.13653C19.2231 13.0421 22.397 16.2081 26.3122 16.2081Z" fill="#6CF80A"/><path d="M26.5598 16.0294C30.475 16.0294 33.6489 12.8633 33.6489 8.95782C33.6489 5.05229 30.475 1.88623 26.5598 1.88623C22.6446 1.88623 19.4707 5.05229 19.4707 8.95782C19.4707 12.8633 22.6446 16.0294 26.5598 16.0294Z" fill="#6CF809"/><path d="M26.8026 15.8449C30.7151 15.8449 33.8869 12.681 33.8869 8.77817C33.8869 4.87531 30.7151 1.71143 26.8026 1.71143C22.8901 1.71143 19.7184 4.87531 19.7184 8.77817C19.7184 12.681 22.8901 15.8449 26.8026 15.8449Z" fill="#6CF908"/><path d="M27.0503 15.6657C30.9628 15.6657 34.1345 12.5018 34.1345 8.59897C34.1345 4.69612 30.9628 1.53223 27.0503 1.53223C23.1377 1.53223 19.966 4.69612 19.966 8.59897C19.966 12.5018 23.1377 15.6657 27.0503 15.6657Z" fill="#6DFA07"/><path d="M27.293 15.4865C31.2055 15.4865 34.3773 12.3226 34.3773 8.41977C34.3773 4.51692 31.2055 1.35303 27.293 1.35303C23.3805 1.35303 20.2088 4.51692 20.2088 8.41977C20.2088 12.3226 23.3805 15.4865 27.293 15.4865Z" fill="#6DFB06"/><path d="M27.5407 15.3073C31.4532 15.3073 34.6249 12.1434 34.6249 8.24057C34.6249 4.33772 31.4532 1.17383 27.5407 1.17383C23.6281 1.17383 20.4564 4.33772 20.4564 8.24057C20.4564 12.1434 23.6281 15.3073 27.5407 15.3073Z" fill="#6EFB05"/><path d="M27.7883 15.1281C31.7008 15.1281 34.8725 11.9642 34.8725 8.06137C34.8725 4.15852 31.7008 0.994629 27.7883 0.994629C23.8758 0.994629 20.7041 4.15852 20.7041 8.06137C20.7041 11.9642 23.8758 15.1281 27.7883 15.1281Z" fill="#6EFC04"/><path d="M28.0311 14.9489C31.9436 14.9489 35.1153 11.785 35.1153 7.88217C35.1153 3.97932 31.9436 0.81543 28.0311 0.81543C24.1185 0.81543 20.9468 3.97932 20.9468 7.88217C20.9468 11.785 24.1185 14.9489 28.0311 14.9489Z" fill="#6FFD03"/><path d="M28.2787 14.7697C32.1912 14.7697 35.363 11.6058 35.363 7.70298C35.363 3.80012 32.1912 0.63623 28.2787 0.63623C24.3662 0.63623 21.1945 3.80012 21.1945 7.70298C21.1945 11.6058 24.3662 14.7697 28.2787 14.7697Z" fill="#6FFE02"/><path d="M28.5215 14.5856C32.434 14.5856 35.6057 11.4217 35.6057 7.51889C35.6057 3.61604 32.434 0.452148 28.5215 0.452148C24.609 0.452148 21.4372 3.61604 21.4372 7.51889C21.4372 11.4217 24.609 14.5856 28.5215 14.5856Z" fill="#70FE01"/><path d="M28.7691 14.4016C32.679 14.4016 35.8485 11.2399 35.8485 7.33973C35.8485 3.43955 32.679 0.277832 28.7691 0.277832C24.8593 0.277832 21.6897 3.43955 21.6897 7.33973C21.6897 11.2399 24.8593 14.4016 28.7691 14.4016Z" fill="#70FF00"/></g><path d="M62.168 37.432C60.464 37.432 58.88 37.12 57.416 36.496C55.976 35.872 54.728 35.008 53.672 33.904C52.64 32.776 51.884 31.468 51.404 29.98L55.472 28.216C56.12 29.752 57.056 30.964 58.28 31.852C59.504 32.716 60.884 33.148 62.42 33.148C63.692 33.148 64.712 32.848 65.48 32.248C66.272 31.648 66.668 30.856 66.668 29.872C66.668 29.08 66.428 28.432 65.948 27.928C65.492 27.424 64.796 27.016 63.86 26.704L58.712 25.048C56.624 24.376 55.052 23.404 53.996 22.132C52.94 20.836 52.412 19.312 52.412 17.56C52.412 16.024 52.784 14.668 53.528 13.492C54.296 12.316 55.352 11.404 56.696 10.756C58.064 10.084 59.624 9.748 61.376 9.748C63.8 9.748 65.9 10.36 67.676 11.584C69.476 12.808 70.736 14.428 71.456 16.444L67.424 18.244C66.896 16.9 66.104 15.868 65.048 15.148C63.992 14.404 62.768 14.032 61.376 14.032C60.128 14.032 59.12 14.344 58.352 14.968C57.608 15.568 57.236 16.36 57.236 17.344C57.236 18.088 57.476 18.748 57.956 19.324C58.46 19.876 59.192 20.308 60.152 20.62L65.084 22.168C69.356 23.536 71.492 26.008 71.492 29.584C71.492 31.12 71.096 32.476 70.304 33.652C69.512 34.828 68.42 35.752 67.028 36.424C65.636 37.096 64.016 37.432 62.168 37.432ZM74.2446 37V9.748H78.9606V19.36C79.5126 18.568 80.2446 17.98 81.1566 17.596C82.0686 17.188 83.0886 16.984 84.2166 16.984C85.6566 16.984 86.9286 17.296 88.0326 17.92C89.1606 18.544 90.0366 19.42 90.6606 20.548C91.2846 21.652 91.5966 22.936 91.5966 24.4V37H86.8806V25.516C86.8806 24.22 86.5086 23.2 85.7646 22.456C85.0206 21.688 84.0726 21.304 82.9206 21.304C81.7686 21.304 80.8206 21.688 80.0766 22.456C79.3326 23.224 78.9606 24.244 78.9606 25.516V37H74.2446ZM103.9 37.432C101.98 37.432 100.228 36.988 98.6444 36.1C97.0844 35.212 95.8364 34 94.9004 32.464C93.9884 30.928 93.5324 29.176 93.5324 27.208C93.5324 25.24 93.9884 23.488 94.9004 21.952C95.8364 20.416 97.0844 19.204 98.6444 18.316C100.204 17.428 101.956 16.984 103.9 16.984C105.82 16.984 107.56 17.428 109.12 18.316C110.68 19.204 111.916 20.416 112.828 21.952C113.764 23.488 114.232 25.24 114.232 27.208C114.232 29.176 113.764 30.94 112.828 32.5C111.892 34.036 110.644 35.248 109.084 36.136C107.524 37 105.796 37.432 103.9 37.432ZM103.9 33.112C104.956 33.112 105.88 32.86 106.672 32.356C107.488 31.852 108.124 31.156 108.58 30.268C109.06 29.356 109.3 28.336 109.3 27.208C109.3 26.08 109.06 25.072 108.58 24.184C108.124 23.296 107.488 22.6 106.672 22.096C105.88 21.568 104.956 21.304 103.9 21.304C102.844 21.304 101.896 21.568 101.056 22.096C100.24 22.6 99.5924 23.296 99.1124 24.184C98.6564 25.072 98.4284 26.08 98.4284 27.208C98.4284 28.336 98.6564 29.356 99.1124 30.268C99.5924 31.156 100.24 31.852 101.056 32.356C101.896 32.86 102.844 33.112 103.9 33.112ZM116.549 44.2V17.416H120.977V19.72C121.673 18.856 122.561 18.184 123.641 17.704C124.721 17.224 125.933 16.984 127.277 16.984C129.149 16.984 130.829 17.44 132.317 18.352C133.805 19.24 134.981 20.464 135.845 22.024C136.709 23.56 137.141 25.288 137.141 27.208C137.141 29.128 136.709 30.868 135.845 32.428C134.981 33.964 133.805 35.188 132.317 36.1C130.829 36.988 129.137 37.432 127.241 37.432C126.041 37.432 124.925 37.24 123.893 36.856C122.861 36.448 121.985 35.872 121.265 35.128V44.2H116.549ZM126.701 33.112C127.781 33.112 128.729 32.86 129.545 32.356C130.385 31.852 131.045 31.156 131.525 30.268C132.005 29.356 132.245 28.336 132.245 27.208C132.245 26.08 132.005 25.072 131.525 24.184C131.045 23.296 130.385 22.6 129.545 22.096C128.729 21.568 127.781 21.304 126.701 21.304C125.669 21.304 124.733 21.556 123.893 22.06C123.077 22.564 122.429 23.26 121.949 24.148C121.493 25.036 121.265 26.056 121.265 27.208C121.265 28.36 121.493 29.38 121.949 30.268C122.429 31.156 123.077 31.852 123.893 32.356C124.733 32.86 125.669 33.112 126.701 33.112ZM141.287 37V21.628H137.831V17.416H141.287V16.768C141.287 14.536 141.959 12.808 143.303 11.584C144.647 10.36 146.447 9.748 148.703 9.748C149.375 9.748 149.987 9.808 150.539 9.928V13.996C150.107 13.924 149.699 13.888 149.315 13.888C148.283 13.888 147.467 14.128 146.867 14.608C146.291 15.064 146.003 15.784 146.003 16.768V17.416H150.359V21.628H146.003V37H141.287ZM152.279 37V17.416H156.707V20.188C157.211 19.06 157.919 18.28 158.831 17.848C159.743 17.416 160.799 17.2 161.999 17.2H163.151V21.376H161.459C160.139 21.376 159.059 21.796 158.219 22.636C157.403 23.452 156.995 24.604 156.995 26.092V37H152.279ZM174.06 37.432C172.14 37.432 170.388 36.988 168.804 36.1C167.244 35.212 165.996 34 165.06 32.464C164.148 30.928 163.692 29.176 163.692 27.208C163.692 25.24 164.148 23.488 165.06 21.952C165.996 20.416 167.244 19.204 168.804 18.316C170.364 17.428 172.116 16.984 174.06 16.984C175.98 16.984 177.72 17.428 179.28 18.316C180.84 19.204 182.076 20.416 182.988 21.952C183.924 23.488 184.392 25.24 184.392 27.208C184.392 29.176 183.924 30.94 182.988 32.5C182.052 34.036 180.804 35.248 179.244 36.136C177.684 37 175.956 37.432 174.06 37.432ZM174.06 33.112C175.116 33.112 176.04 32.86 176.832 32.356C177.648 31.852 178.284 31.156 178.74 30.268C179.22 29.356 179.46 28.336 179.46 27.208C179.46 26.08 179.22 25.072 178.74 24.184C178.284 23.296 177.648 22.6 176.832 22.096C176.04 21.568 175.116 21.304 174.06 21.304C173.004 21.304 172.056 21.568 171.216 22.096C170.4 22.6 169.752 23.296 169.272 24.184C168.816 25.072 168.588 26.08 168.588 27.208C168.588 28.336 168.816 29.356 169.272 30.268C169.752 31.156 170.4 31.852 171.216 32.356C172.056 32.86 173.004 33.112 174.06 33.112ZM186.708 37V17.416H191.136V19.828C191.664 18.892 192.408 18.184 193.368 17.704C194.352 17.224 195.456 16.984 196.68 16.984C198.12 16.984 199.392 17.296 200.496 17.92C201.624 18.544 202.5 19.42 203.124 20.548C203.748 21.652 204.06 22.936 204.06 24.4V37H199.344V25.516C199.344 24.22 198.972 23.2 198.228 22.456C197.508 21.688 196.56 21.304 195.384 21.304C194.208 21.304 193.248 21.688 192.504 22.456C191.784 23.224 191.424 24.244 191.424 25.516V37H186.708ZM215.716 37.216C213.508 37.216 211.792 36.604 210.568 35.38C209.368 34.156 208.768 32.452 208.768 30.268V21.628H205.384V17.416H205.744C206.704 17.416 207.448 17.164 207.976 16.66C208.504 16.156 208.768 15.424 208.768 14.464V12.952H213.484V17.416H217.984V21.628H213.484V30.016C213.484 31 213.748 31.756 214.276 32.284C214.804 32.812 215.644 33.076 216.796 33.076C217.18 33.076 217.6 33.04 218.056 32.968V37C217.72 37.048 217.336 37.096 216.904 37.144C216.472 37.192 216.076 37.216 215.716 37.216Z" fill="#fff"/><defs><clipPath id="clip0_5701_11809"><path fill="#fff" transform="translate(0 .278)" d="M0 0H40V44.444H0z"/></clipPath></defs></svg>